<svg width="512" height="512" viewBox="0 0 512 512" fill="none" xmlns="http://www.w3.org/2000/svg">
  <defs>
    <linearGradient id="grad1" x1="0%" y1="0%" x2="100%" y2="100%">
      <stop offset="0%" style="stop-color:#667eea;stop-opacity:1" />
      <stop offset="100%" style="stop-color:#764ba2;stop-opacity:1" />
    </linearGradient>
  </defs>
  
  <!-- Background circle -->
  <circle cx="256" cy="256" r="256" fill="url(#grad1)"/>
  
  <!-- Person head -->
  <circle cx="256" cy="176" r="64" fill="white" opacity="0.9"/>
  
  <!-- Person body -->
  <path d="M256 240 C192 240 160 288 160 352 L160 448 L352 448 L352 352 C352 288 320 240 256 240 Z" fill="white" opacity="0.9"/>
  
  <!-- Code brackets decoration -->
  <text x="128" y="144" fill="white" font-size="128" opacity="0.7" font-family="monospace">&lt;</text>
  <text x="352" y="144" fill="white" font-size="128" opacity="0.7" font-family="monospace">/&gt;</text>
  
  <!-- Developer badge -->
  <circle cx="256" cy="400" r="24" fill="#f6ad55"/>
  <text x="256" y="416" fill="white" font-size="32" text-anchor="middle" font-family="monospace">AY</text>
  
  <!-- Code elements -->
  <rect x="180" y="320" width="60" height="8" fill="#667eea" opacity="0.6" rx="4"/>
  <rect x="180" y="340" width="40" height="8" fill="#764ba2" opacity="0.6" rx="4"/>
  <rect x="180" y="360" width="80" height="8" fill="#f6ad55" opacity="0.6" rx="4"/>
  
  <rect x="272" y="320" width="60" height="8" fill="#667eea" opacity="0.6" rx="4"/>
  <rect x="272" y="340" width="40" height="8" fill="#764ba2" opacity="0.6" rx="4"/>
  <rect x="272" y="360" width="80" height="8" fill="#f6ad55" opacity="0.6" rx="4"/>
</svg>